<svg xmlns:xlink="http://www.w3.org/1999/xlink" xmlns="http://www.w3.org/2000/svg" width="27" height="23" viewBox="0 0 399 313" fill="none"><path d="M65.2809 238.586C67.7143 236.154 71.0136 234.788 74.4536 234.788H391.851C397.633 234.788 400.528 241.78 396.437 245.867L333.72 308.534C331.287 310.966 327.988 312.332 324.548 312.332H7.15008C1.36809 312.332 -1.52637 305.34 2.56375 301.253L65.2809 238.586Z" fill="currentColor"></path><path d="M65.2809 4.46527C67.7143 2.0338 71.0136 0.667969 74.4536 0.667969H391.851C397.633 0.667969 400.528 7.65972 396.437 11.7466L333.72 74.4138C331.287 76.8452 327.988 78.2111 324.548 78.2111H7.15008C1.36809 78.2111 -1.52637 71.2193 2.56375 67.1325L65.2809 4.46527Z" fill="currentColor"></path><path d="M333.72 120.78C331.287 118.348 327.988 116.983 324.548 116.983H7.15008C1.36808 116.983 -1.52637 123.974 2.56375 128.061L65.2809 190.728C67.7143 193.16 71.0136 194.526 74.4536 194.526H391.851C397.633 194.526 400.528 187.534 396.437 183.447L333.72 120.78Z" fill="currentColor"></path></svg>